<svg width="1362" height="274" viewBox="0 0 1362 274" fill="none" xmlns="http://www.w3.org/2000/svg">
<g opacity="0.1">
<path d="M76.345 225.7C127.981 224.674 179.955 207.462 211.428 163.796C230.762 135.145 251.641 97.0497 288.542 89.6035C313.753 84.517 349.782 86.5382 376.572 86.5657L502.382 86.6381C502.728 97.5575 502.502 109.263 502.48 120.245C479.203 120.577 455.922 120.681 432.643 120.557C433.907 152.718 432.371 197.433 432.301 230.855C432.227 258.567 432.371 286.281 432.734 313.991L395.047 313.917C395.448 249.463 395.42 185.007 394.962 120.553C368.954 120.467 304.028 116.433 283.323 126.945C271.413 132.992 263.708 143.123 256.087 153.801C241.427 174.342 228.039 193.545 208.688 209.892C169.379 243.098 114.903 260.732 63.975 255.959C56.995 273.876 48.646 296.25 40.64 313.379C29.17 314.437 12.014 314.133 0 314.235C1.656 308.451 7.62899 296.009 10.344 289.724L31.875 239.672C38.699 223.777 93.628 91.8602 98.49 87.047C111.214 86.375 124.242 86.118 136.943 87.2081C141.915 95.2274 147.484 109.585 151.473 118.582C160.118 138.08 168.126 158.127 176.935 177.57C164.159 184.591 160.443 189.737 144.471 196.252C142.023 186.036 122.126 136.851 116.622 126.405C115.34 130.286 113.144 135.159 111.524 139.002C99.582 167.346 89.332 197.94 76.345 225.7Z" fill="url(#paint0_linear_161_1044)"/>
<path d="M941.946 86.9766C977.576 85.8171 1016.66 85.3899 1051.88 88.6938C1100.02 93.2093 1129.56 139.29 1114.01 185.937C1105.51 211.446 1092.97 218.254 1071.23 229.174C1088.38 254.975 1104.94 288.658 1123.34 314.213L1089.09 313.912C1086.97 313.891 1084.41 313.91 1082.34 313.356C1076.76 311.864 1040.74 246.952 1034.42 236.602C1016.12 236.468 997.816 236.514 979.516 236.739C979.166 262.437 979.156 288.138 979.506 313.834C967.186 314.196 953.456 313.93 941.036 313.941C941.696 258.982 940.696 203.494 941.066 148.534C941.126 139.685 940.306 92.215 941.946 86.9766ZM1066.98 192.226C1076.3 180.142 1080.05 171.127 1078.74 155.225C1074.98 109.868 1012.62 120.714 979.556 120.448C979.076 146.748 980.276 178.81 979.246 203.712C1010.28 203.321 1041.07 208.279 1066.98 192.226Z" fill="url(#paint1_linear_161_1044)"/>
<path d="M726.976 86.8237C740.846 86.2292 758.716 86.4444 772.836 86.5749C801.336 87.2296 828.156 84.0377 855.866 93.0951C896.736 106.458 912.296 149.021 899.106 188.623C891.966 210.058 876.926 220.132 857.656 229.248L908.056 313.818C896.616 314.175 884.816 314.052 873.346 314.074C871.686 314.025 869.976 313.997 868.336 313.73C862.306 312.75 827.626 247.597 819.826 236.694L765.146 236.788L764.956 313.922C752.356 314.136 739.326 313.992 726.696 314.013L726.716 164.526C726.696 141.801 725.506 108.183 726.976 86.8237ZM765.186 203.465C795.606 203.577 826.546 207.831 852.546 192.327C861.806 180.465 865.916 171.723 864.466 155.881C860.116 108.646 798.896 121.682 765.216 120.414C764.936 148.097 764.926 175.782 765.186 203.465Z" fill="url(#paint2_linear_161_1044)"/>
<path d="M1226 86.9033C1234.43 86.37 1255.79 85.5338 1263 88.1382C1269.36 93.8162 1350.24 287.708 1361.58 314.047C1348.07 314.071 1333.28 314.413 1319.9 313.471C1312.68 295.635 1304.64 273.514 1296.51 256.548L1263.59 256.598C1239.16 256.715 1214.73 256.629 1190.3 256.337C1188.75 264.645 1171.35 305.739 1166.88 313.336C1158.15 314.409 1136.66 314.149 1126.8 314.257C1159.92 241.245 1189.3 165.866 1221.68 92.4721C1222.71 90.1359 1224.04 88.4676 1226 86.9033ZM1203.9 223.435C1217.24 223.185 1230.57 223.066 1243.91 223.076C1256.38 223.111 1269.94 222.905 1282.32 223.265C1280.5 216.741 1272.98 197.16 1270.22 191.591C1265.4 181.849 1247.64 130.647 1243 127.842C1233.45 148.528 1225.34 173.031 1216.32 194.217C1212.17 203.962 1209.01 214.025 1203.9 223.435Z" fill="url(#paint3_linear_161_1044)"/>
<path d="M529.122 86.9226C578.355 85.2838 637.166 86.2047 687.016 86.7186C687.566 97.7798 687.386 108.865 686.496 119.903C672.696 120.943 654.265 120.448 640.145 120.44L567.497 120.567C568.006 139.461 567.62 160.163 567.648 179.2L673.525 179.182C673.995 189.966 673.655 201.837 673.565 212.709C659.005 212.998 571.132 211.762 568.038 213.774L567.577 216.833C566.926 237.567 567.366 259.688 567.403 280.549L691.516 280.659C691.796 291.543 691.616 303.162 691.636 314.105L528.786 314.02L528.887 158.864C528.859 142.777 527.431 100.465 529.122 86.9226Z" fill="url(#paint4_linear_161_1044)"/>
<path d="M297.541 137.312L298.347 137.7C298.699 138.307 299.05 138.912 299.402 139.519C298.5 189.203 298.909 266.735 299.019 313.999L269.347 313.987C266.071 314.1 263.664 314.526 260.762 313.102C259.523 300.875 260.473 277.644 260.551 264.177C260.805 235.219 260.738 206.259 260.351 177.303C272.132 157.83 278.048 148.935 297.541 137.312Z" fill="url(#paint5_linear_161_1044)"/>
<path d="M199.878 236.419C203.061 237.719 231.085 304.768 235.541 314.007L205.127 314.058L193.869 313.75C186.655 297.806 174.542 268.88 169.018 252.952C177.107 247.651 188.205 244.553 199.878 236.419Z" fill="url(#paint6_linear_161_1044)"/>
<path d="M277.017 0.19532C290.67 -1.52091 303.144 8.26047 305.024 22.1565C306.904 36.0526 297.493 48.9126 283.895 51.0306C273.725 52.6143 263.633 47.7246 258.412 38.6846C254.11 31.2343 253.776 22.074 257.525 14.3178C261.274 6.56261 268.601 1.2528 277.017 0.19532Z" fill="url(#paint7_linear_161_1044)"/>
</g>
<defs>
<linearGradient id="paint0_linear_161_1044" x1="251.286" y1="86.1466" x2="251.286" y2="314.235" gradientUnits="userSpaceOnUse">
<stop stop-color="white"/>
<stop offset="1" stop-color="white" stop-opacity="0"/>
</linearGradient>
<linearGradient id="paint1_linear_161_1044" x1="1032.12" y1="86.1252" x2="1032.12" y2="314.213" gradientUnits="userSpaceOnUse">
<stop stop-color="white"/>
<stop offset="1" stop-color="white" stop-opacity="0"/>
</linearGradient>
<linearGradient id="paint2_linear_161_1044" x1="817.149" y1="86.4272" x2="817.149" y2="314.077" gradientUnits="userSpaceOnUse">
<stop stop-color="white"/>
<stop offset="1" stop-color="white" stop-opacity="0"/>
</linearGradient>
<linearGradient id="paint3_linear_161_1044" x1="1244.19" y1="86.3392" x2="1244.19" y2="314.257" gradientUnits="userSpaceOnUse">
<stop stop-color="white"/>
<stop offset="1" stop-color="white" stop-opacity="0"/>
</linearGradient>
<linearGradient id="paint4_linear_161_1044" x1="609.986" y1="85.9924" x2="609.986" y2="314.105" gradientUnits="userSpaceOnUse">
<stop stop-color="white"/>
<stop offset="1" stop-color="white" stop-opacity="0"/>
</linearGradient>
<linearGradient id="paint5_linear_161_1044" x1="279.766" y1="137.312" x2="279.766" y2="314.135" gradientUnits="userSpaceOnUse">
<stop stop-color="white"/>
<stop offset="1" stop-color="white" stop-opacity="0"/>
</linearGradient>
<linearGradient id="paint6_linear_161_1044" x1="202.279" y1="236.419" x2="202.279" y2="314.058" gradientUnits="userSpaceOnUse">
<stop stop-color="white"/>
<stop offset="1" stop-color="white" stop-opacity="0"/>
</linearGradient>
<linearGradient id="paint7_linear_161_1044" x1="280.097" y1="0" x2="280.097" y2="51.3256" gradientUnits="userSpaceOnUse">
<stop stop-color="white"/>
<stop offset="1" stop-color="white" stop-opacity="0"/>
</linearGradient>
</defs>
</svg>
